<svg xmlns="http://www.w3.org/2000/svg" width="280" height="280" viewBox="0 0 280 280" fill="none" stroke="#fff" stroke-width="2.1" stroke-linecap="round" stroke-linejoin="round">
  <!-- camera (photography) -->
  <rect x="22" y="46" width="44" height="30" rx="4"/>
  <path d="M32 46l3-6h16l3 6"/>
  <circle cx="44" cy="61" r="8"/>
  <circle cx="59" cy="52" r="1.4"/>
  <!-- shuttlecock (badminton) -->
  <path d="M115 52l-7-14h14z"/>
  <path d="M108 38l-3-11M115 38v-12M122 38l3-11"/>
  <circle cx="115" cy="52" r="1.6"/>
  <!-- racket -->
  <ellipse cx="238" cy="44" rx="13" ry="17"/>
  <path d="M238 28v33M225 44h26M231 31v26M245 31v26"/>
  <path d="M238 61v16M234 77h8"/>
  <!-- neuron (ML) -->
  <circle cx="40" cy="130" r="7"/>
  <path d="M33 124l-9-6M33 136l-9 6M47 124l9-6M40 123v-10"/>
  <path d="M47 134l14 8M61 142l4-2M61 142l1 4"/>
  <!-- code braces -->
  <path d="M133 114c-5 0-5 5-5 9s-3 4-3 4 3 0 3 4 0 9 5 9"/>
  <path d="M151 114c5 0 5 5 5 9s3 4 3 4-3 0-3 4 0 9-5 9"/>
  <path d="M145 118l-6 22"/>
  <!-- 3D bounding box (research) -->
  <rect x="222" y="126" width="20" height="20"/>
  <path d="M222 126l7-7h20v20l-7 7"/>
  <path d="M242 126l7-7"/>
  <!-- coffee -->
  <path d="M30 202h20v14a5 5 0 0 1-5 5h-10a5 5 0 0 1-5-5z"/>
  <path d="M50 205a5 5 0 0 1 0 10"/>
  <path d="M36 196q3-4 0-8M44 196q3-4 0-8"/>
  <!-- grad cap (teaching) -->
  <path d="M120 206l18-7 18 7-18 7z"/>
  <path d="M127 211v7c0 3 22 3 22 0v-7"/>
  <path d="M156 206v10"/>
  <circle cx="156" cy="220" r="1.6"/>
  <!-- paper plane (travel) -->
  <path d="M224 202l32 8-32 8 6-8z"/>
  <path d="M230 210h26"/>
  <!-- house (Airbnb) -->
  <path d="M124 270v-15l14-11 14 11v15z"/>
  <path d="M122 256l16-13 16 13"/>
  <path d="M134 270v-8h8v8"/>
</svg>
